<?xml version="1.0" standalone="no"?><!DOCTYPE svg PUBLIC "-//W3C//DTD SVG 1.1//EN" "http://www.w3.org/Graphics/SVG/1.1/DTD/svg11.dtd"><svg t="1536570798471" class="icon" style="" viewBox="0 0 1024 1024" version="1.1" xmlns="http://www.w3.org/2000/svg" p-id="2262" xmlns:xlink="http://www.w3.org/1999/xlink" width="200" height="200"><defs><style type="text/css"></style></defs><path d="M960 0H697.563v1024H960c38.4 0 64-27.502 64-68.754V68.754C1024 27.502 991.963 0 960 0z m-64 536.064H780.8c-12.8 0-25.6-13.75-25.6-27.502s12.8-27.501 25.6-27.501H896c12.8 0 25.6 13.75 25.6 27.501s-12.8 27.502-25.6 27.502z m0-158.062H780.8c-12.8 0-25.6-13.75-25.6-27.501s12.8-27.502 25.6-27.502H896c12.8 0 25.6 13.75 25.6 27.502s-12.8 27.501-25.6 27.501z m0-158.061H780.8c-12.8 0-25.6-13.751-25.6-27.502 6.437-13.751 12.8-27.502 25.6-27.502H896c12.8 0 25.6 13.751 25.6 27.502S908.8 219.94 896 219.94zM371.2 0v1024h281.6V0H371.2z m198.363 536.064H454.437c-12.874 0-25.6-13.75-25.6-27.502s12.726-27.501 25.6-27.501h115.126c12.874 0 25.6 13.75 25.6 27.501s-12.8 27.502-25.6 27.502z m0-158.062H454.437c-12.874 0-25.6-13.75-25.6-27.501s12.726-27.502 25.6-27.502h115.126c12.874 0 25.6 13.75 25.6 27.502s-12.8 27.501-25.6 27.501z m0-158.061H454.437c-12.874 0-25.6-13.751-25.6-27.502s12.726-27.502 25.6-27.502h115.126c12.874 0 25.6 13.751 25.6 27.502s-12.8 27.502-25.6 27.502zM64 0C25.6 0 0 27.502 0 68.754v886.492C0 989.623 32.037 1024 64 1024h256V0H64z m179.2 536.064H128c-12.8 0-25.6-13.75-25.6-27.502s12.8-27.501 25.6-27.501h115.2c12.8 0 19.163 13.75 19.163 27.501S256 536.064 243.2 536.064z m0-158.062H128c-12.8 0-25.6-13.75-25.6-27.501s12.8-27.502 25.6-27.502h115.2c12.8 0 25.6 13.75 25.6 27.502s-12.8 27.501-25.6 27.501z m0-158.061H128c-12.8 0-25.6-13.751-25.6-27.502s12.8-27.502 25.6-27.502h115.2c12.8 0 25.6 13.751 25.6 27.502S256 219.94 243.2 219.94z" fill="#ffffff" p-id="2263"></path></svg>