<?xml version="1.0" standalone="no"?><!DOCTYPE svg PUBLIC "-//W3C//DTD SVG 1.1//EN" "http://www.w3.org/Graphics/SVG/1.1/DTD/svg11.dtd"><svg t="1535420835367" class="icon" style="" viewBox="0 0 1024 1024" version="1.1" xmlns="http://www.w3.org/2000/svg" p-id="1318" xmlns:xlink="http://www.w3.org/1999/xlink" width="200" height="200"><defs><style type="text/css"></style></defs><path d="M824 0H413.8c-19.1 0-37.4 7.6-50.9 21.1L149.1 234.9a71.983 71.983 0 0 0-21.1 50.9V952c0 39.8 32.2 72 72 72h660c19.9 0 36-16.1 36-36V72c0-39.8-32.2-72-72-72zM384 101.8V255H230.8L384 101.8zM200 952V327h220c19.9 0 36-16.1 36-36V72h368v880H200z" p-id="1319" fill="#ffffff"></path><path d="M512.1 648.9L432.4 448H320v351h92.5V602.4L481.1 773h62l68.4-170.5V799H704V448H591.6z" p-id="1320" fill="#ffffff"></path></svg>