<?xml version="1.0" standalone="no"?><!DOCTYPE svg PUBLIC "-//W3C//DTD SVG 1.1//EN" "http://www.w3.org/Graphics/SVG/1.1/DTD/svg11.dtd"><svg t="1535966696155" class="icon" style="" viewBox="0 0 1024 1024" version="1.1" xmlns="http://www.w3.org/2000/svg" p-id="6532" xmlns:xlink="http://www.w3.org/1999/xlink" width="200" height="200"><defs><style type="text/css"></style></defs><path d="M926.85093 1023.967489c-22.956563-209.054641-203.88535-371.871041-414.85093-371.871042-210.947518 0-391.88353 162.816401-414.843705 371.871042H48.851784c17.418812-177.634312 136.630385-330.852666 305.555291-391.760709a10.945458 10.945458 0 0 0 1.528029-19.882443c-104.848821-57.292069-169.98694-166.995904-169.98694-286.279726 0-87.097671 33.916471-168.982704 95.492802-230.566259C343.024521 33.902022 424.902329-0.007225 512-0.007225c87.115733 0 168.993541 33.909246 230.566259 95.485577 61.579943 61.583555 95.489189 143.468588 95.489189 230.566259 0 119.283821-65.127283 228.984044-169.972491 286.272501a10.952683 10.952683 0 0 0-5.656959 10.44334 10.952683 10.952683 0 0 0 7.188601 9.446328c168.921294 60.908044 288.114805 214.126397 305.533617 391.760709h-48.297286zM512 47.842128c-153.398972 0-278.19887 124.803511-278.19887 278.202483 0 153.391747 124.799898 278.19887 278.19887 278.198871 153.406197 0 278.209708-124.807123 278.209708-278.198871 0-153.398972-124.803511-278.202483-278.209708-278.202483z" fill="#ffffff" p-id="6533"></path></svg>